<svg viewBox="0 0 1024 1024" version="1.1" xmlns="http://www.w3.org/2000/svg" width="200" height="200"><path d="M999.879111 431.445333a34.531556 34.531556 0 0 0-19.342222-58.595555l-128.625778-18.204445v0.341334a16.497778 16.497778 0 0 0-3.242667-0.625778 16.668444 16.668444 0 1 0-1.706666 33.28l0.056889 0.227555 128.568889 19.171556-207.018667 206.506667c-17.237333 17.180444-25.201778 41.585778-21.219556 65.592889l48.014223 286.606222-246.328889-132.437334a80.042667 80.042667 0 0 0-75.719111 0L226.986667 965.745778l48.014222-286.606222c3.982222-24.007111-3.925333-48.412444-21.219556-65.536L46.933333 407.04l282.339556-42.097778c25.6-3.640889 47.729778-19.740444 59.107555-42.951111L511.203556 67.128889l122.766222 254.805333c11.377778 23.153778 33.450667 39.253333 59.050666 42.951111l20.878223 3.128889v-0.341333a14.222222 14.222222 0 0 0 2.048 0.398222 16.611556 16.611556 0 1 0 2.844444-32.995555v-0.398223l-20.878222-3.982222a43.633778 43.633778 0 0 1-32.938667-23.779555L542.321778 52.224a34.531556 34.531556 0 0 0-62.236445 0L357.376 306.744889a43.747556 43.747556 0 0 1-33.223111 24.064l-282.282667 41.984a34.531556 34.531556 0 0 0-19.342222 58.709333l207.075556 206.677334a40.391111 40.391111 0 0 1 11.377777 35.271111l-47.957333 286.606222a34.588444 34.588444 0 0 0 50.403556 36.124444l246.215111-132.437333a45.511111 45.511111 0 0 1 43.064889 0l246.215111 132.437333a34.531556 34.531556 0 0 0 50.403555-36.124444l-48.014222-286.492445a40.675556 40.675556 0 0 1 11.605333-35.498666l206.961778-206.620445z" fill="#606D98"></path><path d="M626.289778 415.914667v-0.170667l-11.605334-2.161778a24.234667 24.234667 0 0 1-18.204444-13.198222L528.384 259.128889a19.171556 19.171556 0 0 0-34.531556 0l-67.982222 141.084444a24.291556 24.291556 0 0 1-18.375111 13.312l-156.444444 23.324445a19.171556 19.171556 0 0 0-10.752 32.483555l114.801777 114.574223c5.12 5.12 7.509333 12.401778 6.314667 19.569777l-26.737778 158.890667a19.171556 19.171556 0 0 0 27.989334 20.024889l136.476444-73.386667a25.144889 25.144889 0 0 1 23.893333 0l136.476445 73.386667a19.171556 19.171556 0 0 0 27.875555-20.024889l-26.510222-158.833778a22.528 22.528 0 0 1 6.428445-19.683555l114.744889-114.517334a19.171556 19.171556 0 0 0-10.695112-32.426666l-71.338666-10.126223v0.170667" fill="#5EE5B2"></path><path d="M652.288 419.555556l0.227556-1.706667" fill="#3585F9"></path><path d="M618.837333 516.664889a12.344889 12.344889 0 0 0-11.377777 7.395555 97.962667 97.962667 0 0 1-180.280889 0 12.401778 12.401778 0 1 0-22.755556 9.898667 122.709333 122.709333 0 0 0 225.735111 0 12.401778 12.401778 0 0 0-11.377778-17.294222z" fill="#FFFFFF"></path></svg>